<mxfile host="app.diagrams.net" modified="2023-12-05T17:15:35.332Z" agent="Mozilla/5.0 (Windows NT 10.0; Win64; x64; rv:120.0) Gecko/20100101 Firefox/120.0" etag="GxTZOiiQ4UFVZB5hj_gO" version="22.1.5" type="github">
  <diagram name="Page-1" id="WaKjYUtESf0ZX-tzK_5E">
    <mxGraphModel dx="1434" dy="746" grid="1" gridSize="10" guides="1" tooltips="1" connect="1" arrows="1" fold="1" page="1" pageScale="1" pageWidth="850" pageHeight="1100" math="0" shadow="0">
      <root>
        <mxCell id="0" />
        <mxCell id="1" parent="0" />
        <mxCell id="e71ytTL9a1OSNalidjqo-3" style="edgeStyle=orthogonalEdgeStyle;rounded=0;orthogonalLoop=1;jettySize=auto;html=1;" edge="1" parent="1" source="e71ytTL9a1OSNalidjqo-5">
          <mxGeometry relative="1" as="geometry">
            <mxPoint x="420" y="200" as="targetPoint" />
          </mxGeometry>
        </mxCell>
        <mxCell id="e71ytTL9a1OSNalidjqo-2" value="Cancer Registry Information" style="rounded=1;whiteSpace=wrap;html=1;" vertex="1" parent="1">
          <mxGeometry x="360" y="80" width="120" height="40" as="geometry" />
        </mxCell>
        <mxCell id="e71ytTL9a1OSNalidjqo-7" style="edgeStyle=orthogonalEdgeStyle;rounded=0;orthogonalLoop=1;jettySize=auto;html=1;" edge="1" parent="1" source="e71ytTL9a1OSNalidjqo-5" target="e71ytTL9a1OSNalidjqo-6">
          <mxGeometry relative="1" as="geometry" />
        </mxCell>
        <mxCell id="e71ytTL9a1OSNalidjqo-11" style="edgeStyle=orthogonalEdgeStyle;rounded=0;orthogonalLoop=1;jettySize=auto;html=1;exitX=0.5;exitY=1;exitDx=0;exitDy=0;entryX=0.5;entryY=0;entryDx=0;entryDy=0;" edge="1" parent="1" source="e71ytTL9a1OSNalidjqo-6" target="e71ytTL9a1OSNalidjqo-9">
          <mxGeometry relative="1" as="geometry" />
        </mxCell>
        <mxCell id="e71ytTL9a1OSNalidjqo-6" value="Pre-processing and Encoding" style="rounded=0;whiteSpace=wrap;html=1;" vertex="1" parent="1">
          <mxGeometry x="360" y="260" width="120" height="60" as="geometry" />
        </mxCell>
        <mxCell id="e71ytTL9a1OSNalidjqo-8" value="" style="edgeStyle=orthogonalEdgeStyle;rounded=0;orthogonalLoop=1;jettySize=auto;html=1;" edge="1" parent="1" source="e71ytTL9a1OSNalidjqo-2" target="e71ytTL9a1OSNalidjqo-5">
          <mxGeometry relative="1" as="geometry">
            <mxPoint x="420" y="200" as="targetPoint" />
            <mxPoint x="420" y="120" as="sourcePoint" />
          </mxGeometry>
        </mxCell>
        <mxCell id="e71ytTL9a1OSNalidjqo-5" value="Metabric Cancer Data" style="rounded=0;whiteSpace=wrap;html=1;" vertex="1" parent="1">
          <mxGeometry x="360" y="150" width="120" height="60" as="geometry" />
        </mxCell>
        <mxCell id="e71ytTL9a1OSNalidjqo-13" style="edgeStyle=orthogonalEdgeStyle;rounded=0;orthogonalLoop=1;jettySize=auto;html=1;entryX=0.5;entryY=0;entryDx=0;entryDy=0;" edge="1" parent="1" source="e71ytTL9a1OSNalidjqo-9" target="e71ytTL9a1OSNalidjqo-12">
          <mxGeometry relative="1" as="geometry" />
        </mxCell>
        <mxCell id="e71ytTL9a1OSNalidjqo-15" style="edgeStyle=orthogonalEdgeStyle;rounded=0;orthogonalLoop=1;jettySize=auto;html=1;entryX=0.5;entryY=0;entryDx=0;entryDy=0;" edge="1" parent="1" source="e71ytTL9a1OSNalidjqo-9" target="e71ytTL9a1OSNalidjqo-14">
          <mxGeometry relative="1" as="geometry" />
        </mxCell>
        <mxCell id="e71ytTL9a1OSNalidjqo-9" value="Correlation Analysis" style="rounded=0;whiteSpace=wrap;html=1;" vertex="1" parent="1">
          <mxGeometry x="360" y="360" width="120" height="60" as="geometry" />
        </mxCell>
        <mxCell id="e71ytTL9a1OSNalidjqo-19" style="edgeStyle=orthogonalEdgeStyle;rounded=0;orthogonalLoop=1;jettySize=auto;html=1;entryX=0.5;entryY=0;entryDx=0;entryDy=0;" edge="1" parent="1" source="e71ytTL9a1OSNalidjqo-12" target="e71ytTL9a1OSNalidjqo-16">
          <mxGeometry relative="1" as="geometry" />
        </mxCell>
        <mxCell id="e71ytTL9a1OSNalidjqo-12" value="Kaplan Meier Survival Analysis" style="rounded=0;whiteSpace=wrap;html=1;" vertex="1" parent="1">
          <mxGeometry x="180" y="480" width="120" height="60" as="geometry" />
        </mxCell>
        <mxCell id="e71ytTL9a1OSNalidjqo-14" value="Cox Proportional Hazard Model" style="rounded=0;whiteSpace=wrap;html=1;" vertex="1" parent="1">
          <mxGeometry x="550" y="480" width="120" height="60" as="geometry" />
        </mxCell>
        <mxCell id="e71ytTL9a1OSNalidjqo-16" value="Logarithmic Test" style="rounded=0;whiteSpace=wrap;html=1;" vertex="1" parent="1">
          <mxGeometry x="180" y="590" width="120" height="60" as="geometry" />
        </mxCell>
        <mxCell id="e71ytTL9a1OSNalidjqo-17" value="Result Analysis" style="rounded=0;whiteSpace=wrap;html=1;" vertex="1" parent="1">
          <mxGeometry x="170" y="720" width="510" height="60" as="geometry" />
        </mxCell>
        <mxCell id="e71ytTL9a1OSNalidjqo-18" style="edgeStyle=orthogonalEdgeStyle;rounded=0;orthogonalLoop=1;jettySize=auto;html=1;" edge="1" parent="1" source="e71ytTL9a1OSNalidjqo-14">
          <mxGeometry relative="1" as="geometry">
            <mxPoint x="610" y="720" as="targetPoint" />
          </mxGeometry>
        </mxCell>
        <mxCell id="e71ytTL9a1OSNalidjqo-20" style="edgeStyle=orthogonalEdgeStyle;rounded=0;orthogonalLoop=1;jettySize=auto;html=1;entryX=0.139;entryY=-0.017;entryDx=0;entryDy=0;entryPerimeter=0;" edge="1" parent="1" source="e71ytTL9a1OSNalidjqo-16" target="e71ytTL9a1OSNalidjqo-17">
          <mxGeometry relative="1" as="geometry" />
        </mxCell>
      </root>
    </mxGraphModel>
  </diagram>
</mxfile>
